<?xml version="1.0" encoding="utf-8"?>
<!-- Generator: Adobe Illustrator 19.0.0, SVG Export Plug-In . SVG Version: 6.00 Build 0)  -->
<svg version="1.1" id="Layer_1" xmlns="http://www.w3.org/2000/svg" xmlns:xlink="http://www.w3.org/1999/xlink" x="0px" y="0px"
	 viewBox="0 0 78.9 78.4" enable-background="new 0 0 78.9 78.4" xml:space="preserve">
<g>
	<path d="M78.3,4.8c-0.3-1.3-0.4-3.4-2.7-3.6c-1-0.1-54.1-0.7-59.5-1c-18.3-1-15.8,3.4-16,6.2c-0.3,3.6,0,51.4,0.2,56.8
		C0.5,66.7,0.6,70.8,2,74c0.9,2.2,2.5,3.7,4.9,3.8c0.1,0,0.1,0,0.2-0.1c0.1,0,0.2,0,0.2,0.1c2,0.5,4,0.6,6.1,0.6
		c5.4,0,10.8,0,16.2,0c10.9,0,21.9-0.1,32.8,0c3.5,0,7.1,0,10.6-0.3c1.4-0.1,3.8-0.1,4.5-1.4c0.9-1.1,1.1-3.2,1.2-4.5
		C79.1,67.7,78.7,6.6,78.3,4.8z M77.1,65.9c0,3.7,1.2,11.3-12.7,11.2c-5.4,0-10.9,0.1-16.3,0.1C2.7,77.2,3.4,75,2.8,69.8
		c-0.6-4.6-1.1-41.2-1.1-46.6c0-5.1,0.1-10.2,0.4-15.2c0.1-2.2,0.7-4.1,2.7-5.3c1.8-1.1,4.4-1.3,6.4-1.4C14,1,65.9,2,68.6,2
		C81,1.8,77.4,18.6,77.1,65.9z"/>
	<path d="M36.1,37.6c0.4-0.2,0.9-0.3,1.3-0.6c0.7-0.4,1.2-1.3,1.7-2c1-1.8,1.3-3.9,1.1-5.9c-0.4-3.2,0.5-10.1-24.9-8
		c-0.8,0.1-2.2,0.1-2.9,0.5c-0.2,0-0.1,34.8-0.1,34.8c8.2,0.6,28.9,3.9,28.9-10.2C41.1,38.7,36.3,37.7,36.1,37.6z M13.1,22.3
		c0.4-0.1,0.8-0.1,1.2-0.1c22.3-1.3,24.3,3.2,24.6,6c0.8,7.5-3.6,8.5-4.3,9c-0.3,0.2-0.4,0.5-0.2,0.8c0.3,0.6,6.2,1.3,5.6,8.1
		c-0.8,9.3-11.8,9.3-15,9.5c-3.9,0.2-7.9,0.4-11.9,0C13.2,55.3,13.1,22.3,13.1,22.3z"/>
	<path d="M32.8,34.2c1.1-1.5,1.6-7.3-10.8-6.3c-0.4,0-1-0.1-1.4,0.1c-0.5,0.3-0.5,0.8-0.6,1.3c0,0-0.3,5-0.1,6.7
		c0,0.3,0.2,0.5,0.6,0.6C23.7,36.7,30.7,37,32.8,34.2z M20.9,35.5c-0.1-1,0-6,0.4-6.2c0.3-0.1,10.2-0.2,10.5,2.2
		C32.3,36.1,23.5,35.5,20.9,35.5z"/>
	<path d="M20.6,41.3c-0.2,0-0.7,9.9-0.3,10c1.9,0.4,13.9,1.4,13.4-6C33.4,40.3,22.8,41.3,20.6,41.3z M21.5,42.2
		c3-0.1,10.9,0.1,10.9,3.2c0,5.5-9.4,4.7-11.2,4.9C20.9,49.1,21.2,43.7,21.5,42.2z"/>
	<path d="M62.6,23c0-0.2-11.5,0.2-13.9,0.3c-0.2,0-0.2,4.1-0.1,4c0-0.1,2.3-0.1,3.2-0.1c1.6,0,10.6-0.2,10.7-0.4
		C62.7,25.8,62.7,24.1,62.6,23z M56.5,26.5c-1.5,0.1-7.1,0.2-7.5,0.2c0-0.2-0.2-2,0-2.6c2.2,0.2,4.3,0,6.5-0.1c2-0.1,4-0.5,6-0.1
		c0,0.7,0.1,1.4,0,2.2C60.9,26,57.6,26.4,56.5,26.5z"/>
	<path d="M55.1,35.7c-5.8,0-5.4,5-5.2,5c0.2,0.2,11.3,0,11.3,0C61.8,37.2,57.2,35.7,55.1,35.7z M59.8,40.3c-0.8,0.1-7-0.4-8.7-0.2
		c0.2-1.2,0.4-3.1,4-3.3C59.3,36.6,59.8,40.3,59.8,40.3z"/>
	<path d="M54.4,30.5c-14.8,0.6-13.6,18.3-8.5,23.4c2.8,2.8,7.2,3.5,11,3c8.4-1.1,10.9-8.9,10.6-8.9c-1.7-0.1-4.1-0.4-5.8,0
		c0,0-1.2,2.1-4.8,2.6c-1.6,0.2-3.6,0-4.9-1.1c-1.3-1-2-2.6-2.1-4.3c2.2-0.3,4.4,0.2,6.6,0.1c1.3-0.1,2.6-0.1,3.9-0.2
		c1.2,0,7.6,0.4,7.5-0.2C67.8,43,68.6,30,54.4,30.5z M64.9,44.5c-1.7-0.1-3.4,0-5.2,0c-1.9,0.1-10.6-0.1-10.5,0.3c0,0,0.4,7.4,6.7,7
		c4.7-0.3,6.1-3,6.4-3c0.8-0.1,3.1,0.2,3.9,0.2c-0.6,2-4,6.6-10.8,6.9c-4.1,0.2-8.3-1.3-10.5-4.9c-1.9-3.3-2.1-7.6-1.1-11.2
		c0.8-2.8,4.2-9.1,13.5-7.9c1.6,0.2,8.9,2,9.4,12.6C66.4,44.5,65.2,44.6,64.9,44.5z"/>
</g>
<g>
</g>
<g>
</g>
<g>
</g>
<g>
</g>
<g>
</g>
<g>
</g>
</svg>
