<?xml version="1.0" encoding="utf-8"?>
<!-- Generator: Adobe Illustrator 19.0.0, SVG Export Plug-In . SVG Version: 6.00 Build 0)  -->
<svg version="1.1" id="Layer_2" xmlns="http://www.w3.org/2000/svg" xmlns:xlink="http://www.w3.org/1999/xlink" x="0px" y="0px"
	 viewBox="0 0 524.7 814.6" enable-background="new 0 0 524.7 814.6" xml:space="preserve">
<path d="M239.2,40.7c-5.7,5.5-15.7,9-15.7,9c-6.5-23.8-32.7-21.1-40.4-0.9c0,0-7.9-1.9-18.1-9.2c-1.1-0.8-0.9,4.4,0,5.4
	c13.4,15.8,59.7,17.9,72.2,2.7C238.3,46.3,240.5,39.5,239.2,40.7z M217.1,51.4c-4.6-14.5-20.7-12.3-22.7,0c-0.2,1-4.8-0.4-4.7-1.5
	c1-18.2,28.7-17,30.1,0.8C219.9,51.4,217.4,52.1,217.1,51.4z"/>
<path d="M316,47.7c12.5,15.2,58.8,13.1,72.2-2.7c0.9-1,1.1-6.2,0-5.4c-10.2,7.3-18.1,9.2-18.1,9.2c-7.6-20.2-33.9-22.9-40.4,0.9
	c0,0-10-3.5-15.7-9C312.7,39.5,314.9,46.3,316,47.7z M333.3,50.7c1.4-17.8,29.1-19,30.1-0.8c0.1,1-4.6,2.5-4.7,1.5
	c-2.1-12.3-18.1-14.5-22.7,0C335.8,52.1,333.3,51.4,333.3,50.7z"/>
<path d="M166.2,75c-0.4-0.8,0.3-3.6,1-3c17.7,14.8,56.3,18.8,79.2-1.9c1.2-1.1,1.6,5.8,0.7,7.2C233.7,96.6,178.1,98,166.2,75z"/>
<path d="M390.1,75c0.4-0.8-0.3-3.6-1-3c-17.7,14.8-56.3,18.8-79.2-1.9c-1.2-1.1-1.6,5.8-0.7,7.2C322.6,96.6,378.2,98,390.1,75z"/>
<path d="M284.2,235.3c-0.8-14.9-1.4-29.6-1.5-44.5c-0.1-5,0.1-10.3-0.2-15.5c-0.1-2.3-5.8-4.9-3.6,63.6
	c0.9,28.5,6.5,123.1-4.8,174.1c-2.9,13.3-13.2,46.1-13,43c0.2-3-12-24.9-9.2-87.4c5.7-129.5-1.9-198.2-5.6-198.2
	c-2.5,0,4.4,24.1,4.6,65.7c0.1,31.3-0.8,62.1-4.2,93.1c-2.7,24.6-9.7,71.6-3.8,117.7c2.5,19.1,10.4,36.6,15.3,55
	c0.3,1,1.9,1.1,2,0.1c1.1-45.9,36.1-72.9,31.3-158.1C291.6,337.4,285.9,264.9,284.2,235.3z"/>
<path d="M230.2,424.2c1-19.5,3.2-38.8,3.8-58.3c1.2-37.5,1.3-75.2-0.9-112.7c-1.1-18.3-7.2-79.5-9.3-89.9
	c-0.4-1.7-4.1-14.4,1.4,47.6c1,11.3,0.1,28.1,2,44.6c4,35.5-0.5,71.6-1.7,107.3c-1.2,36.3-7.7,72.1-2,108.3
	c5.3,33.7,4.9,101.7,4.9,101.7c13.9-32.9,7.2-70.9,4.9-91C230.9,462.5,229.3,443.7,230.2,424.2z"/>
<path d="M304.3,247.1c2.4-32.3,3.6-79-1.6-76.9c-3.4,1.4,0,8.6-7.8,80.5c-3.8,35.1,3,70.5,7.7,105.4c4.8,35.4,4.1,70.2,1,105.7
	c-1.6,18.1-2.7,36.3-4.4,54.4c-1,9.9-4,46-4.9,54.1c-0.1,0.8,9.8-24.7,10.7-50.9c0.6-18.2,3-36.2,4.1-54.4
	c2.2-36.6,3.6-72.5-0.2-109.1C305,319.6,301.5,283.6,304.3,247.1z"/>
<path d="M373.3,416.2c-2.8-19.5-2-38.8-1.5-58.4c1-37.5-1.8-74.6-5.9-111.9c-2-18.4-3.9-36.8-5.3-55.3c-0.8-10.4-1.9-20.8-3-31.2
	c-0.1-1-1.1-1.6-2.1-1.3c0,0,0,0,0,0c-0.7,0.2-1.1,0.9-1.1,1.6c0.4,5.9,0.5,11.8,0.9,17.7c1.2,19.3,3.1,38.5,4.2,57.9
	c1.1,20.1,3.1,40,3.8,60.1c0.6,19.8-0.2,39.5-1.3,59.2c-1,18.4-2.1,36.6-0.3,55.1c1.8,18.5,5.9,36.8,10,54.9
	c2.3,10.4,4.5,20.7,6.3,31.1c-17.3-2.5-35-6.3-51.3,1.4c0.7-9.2,1.6-18.4,3.1-27.5c2.8-17.6,7.7-34.9,11.3-52.3
	c3.8-18.3,5.5-36.9,6.1-55.6c1.3-37.2-2.5-74.4-5.5-111.4c-1.5-18.7-3.5-37.3-3.9-56.1c-0.2-10,1.4-29.5-2.9-30.3
	c-3-0.6-3.8,64.4-2.6,83.1c2.5,38.3,6,76.6,5,115c-0.5,18.9-2.4,37.8-6,56.3c-3.4,17.5-8.1,34.8-10.9,52.4
	c-2.8,17.4-3.9,35.5-2.6,53.1c1.3,17.9,2.8,36.6,6.6,54.1c0.2,0.7,0.1-33.9,0.7-50.7c0.3-7.6,0.6-15.3,1.1-22.9
	c10.3-4.4,46.1-4.2,53.3,2.2c0.1,0.1,0.1,0,0.2,0c0.8,5.2,8.8,28.6,8.8,63.9c0,6.9,5.2,6.7,5.2,6.7c4.3-35.2-1.6-71.7-9.3-106.1
	C380.3,452.8,376,434.7,373.3,416.2z"/>
<path d="M418.3,374.6c-2-13.2-4.2-26.3-6.2-39.4c-6.3-41.4-8-82.2-5.7-124c1.1-20.6,2.8-41.2,4-61.9c0.4-6.8,0.8-13.7,1.2-20.6
	c0.1-1.2-1.5-1.9-2.3-1c-0.7,0.7-7.1,63-8.7,83.6c-3.1,41.6,8.9,157,8.7,156.8c-14-8.9-18.3-25.2-19.4-39.4
	c-1.3-15.9-1.1-31.7-1-47.6c0.4-31.9-3.3-63.6-3-95.5c0.1-12.4,0.3-24.7,0.2-37.1c0-1.4-1.5-2.3-2.8-1.7c0,0,0,0,0,0
	c-0.6,0.3-1,1-1,1.7c-0.1,14.8-0.7,29.6-0.9,44.3c-0.4,31.9,3.6,63.5,1.1,95.3c-1.8,23.7-8.6,58,8.3,77.9c5,5.9,12.7,11.7,18.9,16.1
	c2.4,37.3-3.7,73.8-1.3,105.1c3.9,52.6,13.1,87.6,13.6,88.3c0,0-1.4-36.3-1.5-85.6c0-31.7,1.9-70.3-0.3-101.9
	c8.4,6.2,16.1,1.5,26.4,17.3c0.5,0.7,1.3,0.2,1.4-0.4C449.8,387.4,431.5,384,418.3,374.6z"/>
<path d="M149.3,134.2c-0.4-0.6-1.3-0.1-1.1,0.5c6.7,27.6-11.8,92-7.3,178.9c1.5,29.5,7.6,58.8,13,87.8c5.7,30.6,5.5,63,4.7,94
	c0,0.6,0.9,0.6,1,0.1c4-30.1,4.6-60.9-0.3-91c-5-30.3-11.3-60.4-13-91.2C144.7,282.5,162.7,156.4,149.3,134.2z"/>
<path d="M144.6,412.8c-2.4-34.6-9.8-68.7-13.1-103.2c-3.4-35-0.5-69.8,2.7-104.7c3.3-36.2,4-71.9-0.8-108c-0.2-1.8-2.8-1.8-2.8,0.1
	c-0.5,17.4,1.2,34.9,1.6,52.3c0.3,17.5-1.4,34.9-3.2,52.4c-3.7,36.2-6.8,71.9-3.5,108.2c3.2,35.8,12.2,70.8,15.5,106.6
	c3.2,33.9,0.6,68.7,7.5,102.2c0,0.2,0.3,0.1,0.3-0.1C142.6,483.9,147.1,447.7,144.6,412.8z"/>
<path d="M214.6,386.1c-5.4-40.5-12.5-76.7-11.4-117.4c0.5-20.4,5.9-43.9,3.7-64.2c-1-9.9-0.6-34.7-5.2-46.8c-0.2-0.5-0.6-0.9-1.2-1
	c-0.2,0-0.3-0.1-0.5-0.1c-1.2-0.3-2.2,0.7-2,1.9c6.5,47.7-3.8,97-4.3,114.3c-1.1,37.8,7,63.7,7.9,101.6c0.4,18.6,2.8,37.1,3,55.8
	c0.1,12.2-4.3,38.7-4.7,37c-5.1-22.5-15.1-32.9-20.2-46.3c-7.6-20.3-9.6-42.7-11.2-88.5c-1.1-32,1.6-63.9,2.7-95.8
	c0.5-16,0.9-32,0.5-48.1c-0.3-11.7-0.4-34.5-6.4-44.9c-0.4-0.7-1.4-0.2-1.2,0.5c5.3,27.9,3.4,67.8,0.7,96
	c-2.9,30.9-9.2,61.4-6.9,92.5c5.6,78.4,18,108.6,23.2,123c4.3,12,8.7,29.5,7.2,43.2c-2.9,26.9-18,49.7-27.3,60.9
	c0,0-12-3.7-14.3-9.3c-2-5.1-5.1-10.1-6.7-15.1c-3.5-11.3-3.7-23.9-4-35.6c-0.7-22.1,0.8-44-2.7-65.9c-3.2-20.3-10.5-39.6-17.1-59
	c-7.7-22.5-14-44-15.2-68c-1.2-23.5,3.7-46.5,8.6-69.3c4.3-20.2,7.3-40.6,9-61.2c1.8-21.9,3.4-42.3,2.5-64.2
	c-0.5-11.6-2.8-22.3-3.6-33.9c-1.5-21,1.4-29.1-1.3-28.8c-1.4,0.1-3.5,17.3-3.4,26.6c0.2,11.6,1.5,23.2,2,34.8
	c1,23.1,1.3,46.1-0.7,69.2c-3.9,44.8-22.4,90-20.6,135.4c2.2,55.1,30.7,94.4,30.7,180.8c0,16,0.3,44.1,11,54.2
	c2.8,2.6-60.7-0.7-67.2-0.2c-2.4,0.2-0.4-2.4,0.2-4.7c3.2-11.3,11-39.4,13-55c2.8-22.2,4-45,2.6-67.3c-1.4-22-4.2-43.8-5.4-65.8
	c-1.2-23-1.6-46.2-0.7-69.2c2-52.9,41.3-195.9,24.4-273.4c-0.5-2.5-3.9-2.4-3.9,0.1c0.1,17.4-1,64.1-1.4,77.1
	c-0.7,22.7-3,45.1-7,67.5c-7.5,42-17.9,82.8-21,125.5c-3.2,43.9-0.5,87.8,4,131.5c2.3,22,0.7,44.1-1.3,66.1
	c-2,22.6-6.8,44.6-15.4,65.4c-1.7,4-6.3,5.1-9.8,5.9c-14.8,3.4-54,8.9-45,15.5c0,0,25.6-8.4,61.5-8.3c33.5,0.1,74.3,8.6,88.9,11.8
	c3.3,0.7-1.6,5.4-1.4,5.4c22.2,0,44-36.6,55.5-82C215.7,457.3,219.9,425.2,214.6,386.1z"/>
<path d="M467.4,506.4c1.7-23.3,5.2-46.3,5.5-69.7c0.5-45.3-7.8-90.2-14.3-134.9c-6.4-44.7-10.3-90.1-11.6-135.2
	c-0.5-15.8-5.8-23-2.2-45.8c0,0-1.1,0.3-1.6,3.2c-1.3,6.5-3.1,13.2-2.3,42.7c1.2,45.2,3.6,90.4,9.2,135.3
	c5.6,44.8,12.6,89.6,12.1,134.9c-0.3,22.2-3.6,44.1-5.4,66.2c-0.9,11.5-2.1,23.1-1.8,34.7c0.4,11,2.3,21.9,3.6,32.9
	C459.4,577.7,466.5,517.9,467.4,506.4z"/>
<path d="M507.7,485c-6.5-10.9-16.7-22.2-20.1-37.3c-7.6-34.2-6.4-96.3-16.7-193.9c-4.9-46.8,1.9-108.4-0.1-136.2
	C469,93.5,467.5,92,463,43.1c-1.3-14-2.5-47.3-4.3-42.2c-4.9,13.7,2.6,61.1,5.4,119.9c1.6,34.5-2.7,76.7-1.5,102.9
	c3.3,73.1,13.4,204.8,17.6,230.2c3.5,21.4,26.1,37.2,27.1,58.6c1.4,29.1-11.7,26-29.3,43.8c-20.1,20.4,14.2,1.1,21.5-2.8
	c6.8-3.6,11.5-10.5,14.6-17.2C522.2,518.9,517,500.8,507.7,485z"/>
<path d="M324.4,349.5c-1.3-23.9-4.8-47.7-6.2-71.6c-1.2-22.1-1.8-45,0.6-67c1.5-13.8,7.2-30.6,1.4-43.9c-0.5-1.1-2.2-0.3-1.9,0.8
	c4.4,15.1-1.8,31.9-3.2,47.2c-2,21.9-1.2,44.5,0.1,66.4c1.3,22.9,4.7,45.4,6.6,68.2c1.9,24.1-0.1,48.4-1.2,72.6c0,0.7,1.1,0.7,1.1,0
	C324.2,397.9,325.7,373.8,324.4,349.5z"/>
<path d="M450.2,377c-4.5-31.2-13.4-61.2-17-92.6c-5.9-51.9,8.6-143.3-7.1-176.3c-0.8-1.7-4,1.4-2.1,4.8c7.7,14.2,1.8,139,3.6,169.6
	c1.7,29.2,12.3,58,18.5,86.3c6.4,29.5,10,60.3,4.5,90.2c0,0.1,0.1,0.2,0.2,0C456.1,432.1,454.1,404,450.2,377z"/>
<g>
	<linearGradient id="SVGID_1_" gradientUnits="userSpaceOnUse" x1="161.32" y1="814.5931" x2="161.32" y2="639.1218">
		<stop  offset="0" style="stop-color:#00CCCE"/>
		<stop  offset="9.939723e-02" style="stop-color:#00C4C6"/>
		<stop  offset="0.2564" style="stop-color:#00ADAF"/>
		<stop  offset="0.4513" style="stop-color:#00898A"/>
		<stop  offset="0.6766" style="stop-color:#005656"/>
		<stop  offset="0.9245" style="stop-color:#001515"/>
		<stop  offset="1" style="stop-color:#000000"/>
	</linearGradient>
	<path fill="url(#SVGID_1_)" d="M190.1,643L190.1,643c0-2.2-1.7-3.9-3.8-3.9h-49.9h-0.1h-0.2c0,0,0,0,0,0c-2,0.1-3.6,1.7-3.6,3.8
		v167.9c0,2.1,1.7,3.8,3.8,3.8h0.1c2.1,0,3.8-1.7,3.8-3.8v-164h46.1C188.4,646.8,190.1,645.1,190.1,643z"/>
	<linearGradient id="SVGID_2_" gradientUnits="userSpaceOnUse" x1="229.7159" y1="811.6964" x2="229.7159" y2="642.0315">
		<stop  offset="0" style="stop-color:#00CCCE"/>
		<stop  offset="9.939723e-02" style="stop-color:#00C4C6"/>
		<stop  offset="0.2564" style="stop-color:#00ADAF"/>
		<stop  offset="0.4513" style="stop-color:#00898A"/>
		<stop  offset="0.6766" style="stop-color:#005656"/>
		<stop  offset="0.9245" style="stop-color:#001515"/>
		<stop  offset="1" style="stop-color:#000000"/>
	</linearGradient>
	<path fill="url(#SVGID_2_)" d="M233.5,644.8c-0.1-0.2-0.2-0.5-0.3-0.7c-0.3-0.6-0.8-1.1-1.4-1.5c-0.1-0.1-0.2-0.1-0.3-0.2
		c-0.1,0-0.1-0.1-0.2-0.1c-0.4-0.2-0.8-0.3-1.3-0.4c-0.1,0-0.2,0-0.3,0c-0.1,0-0.2,0-0.3,0c-0.5,0-0.9,0.2-1.3,0.4
		c-0.1,0-0.1,0.1-0.2,0.1c-0.1,0-0.2,0.1-0.3,0.2c-0.6,0.4-1.1,0.9-1.4,1.5c-0.1,0.2-0.2,0.5-0.3,0.7c-15.6,39.4-39,120-43.8,162.1
		c-0.2,2.1,0.6,4.1,2.7,4.6l0.1,0c2,0.5,4.3-0.6,4.6-2.7c6.7-39.1,26.3-109.9,40.2-151.5c13.8,41.5,33.5,112.4,40.2,151.5
		c0.4,2.1,2.6,3.2,4.6,2.7l0.1,0c2-0.5,2.9-2.6,2.7-4.6C272.4,764.8,249.1,684.2,233.5,644.8z"/>
	<linearGradient id="SVGID_3_" gradientUnits="userSpaceOnUse" x1="323.4712" y1="811.6964" x2="323.4712" y2="642.0187">
		<stop  offset="0" style="stop-color:#00CCCE"/>
		<stop  offset="9.939723e-02" style="stop-color:#00C4C6"/>
		<stop  offset="0.2564" style="stop-color:#00ADAF"/>
		<stop  offset="0.4513" style="stop-color:#00898A"/>
		<stop  offset="0.6766" style="stop-color:#005656"/>
		<stop  offset="0.9245" style="stop-color:#001515"/>
		<stop  offset="1" style="stop-color:#000000"/>
	</linearGradient>
	<path fill="url(#SVGID_3_)" d="M346.5,642.2L346.5,642.2c-2.1-0.6-4.4,0.6-4.7,2.6c-3.1,18.2-9,43.2-15.8,69
		c-6.8-25.8-12.7-50.9-15.8-69c-0.4-2.1-2.6-3.2-4.6-2.7l-0.1,0c-2,0.5-2.9,2.6-2.7,4.6c2.5,21.6,9.8,53.3,18.5,84.4
		c-8,28.9-16.7,57.1-23.2,75.7c-0.7,2,0.6,4.1,2.7,4.6l0.1,0c2,0.5,3.9-0.7,4.6-2.7c15.6-39.4,39-120,43.8-162.1
		C349.4,644.7,348.5,642.7,346.5,642.2z"/>
	<linearGradient id="SVGID_4_" gradientUnits="userSpaceOnUse" x1="86.8912" y1="814.5931" x2="86.8912" y2="639.1218">
		<stop  offset="0" style="stop-color:#00CCCE"/>
		<stop  offset="9.939723e-02" style="stop-color:#00C4C6"/>
		<stop  offset="0.2564" style="stop-color:#00ADAF"/>
		<stop  offset="0.4513" style="stop-color:#00898A"/>
		<stop  offset="0.6766" style="stop-color:#005656"/>
		<stop  offset="0.9245" style="stop-color:#001515"/>
		<stop  offset="1" style="stop-color:#000000"/>
	</linearGradient>
	<path fill="url(#SVGID_4_)" d="M76.8,682.6c6.6-4.4,10.9-11.5,10.9-19.5c0-12.3-10.1-22.5-23.1-23.9c-0.3-0.1-0.7-0.2-1-0.2h-0.1
		c-0.1,0-0.2,0-0.2,0c-0.1,0-0.2,0-0.3,0c0,0,0,0,0,0.1c-1.9,0.2-3.3,1.8-3.3,3.7v167.9c0,2.1,1.7,3.8,3.8,3.8h0.1
		c0.4,0,0.7-0.1,1-0.2c0,0,0,0,0,0c27.6-2,49.6-31.3,49.6-67.3C114.1,716.7,98.4,691,76.8,682.6z M67.3,646.7
		c8.9,1.9,13.4,7.9,13.4,16.5c-0.1,8.7-4.6,14.7-13.4,16.6V646.7z M67.3,804.2V690.2c22,3.6,39.1,27.8,39.1,57
		C106.4,776.5,89.4,800.6,67.3,804.2z"/>
	<linearGradient id="SVGID_5_" gradientUnits="userSpaceOnUse" x1="414.1636" y1="814.5931" x2="414.1636" y2="639.1218">
		<stop  offset="0" style="stop-color:#00CCCE"/>
		<stop  offset="9.939723e-02" style="stop-color:#00C4C6"/>
		<stop  offset="0.2564" style="stop-color:#00ADAF"/>
		<stop  offset="0.4513" style="stop-color:#00898A"/>
		<stop  offset="0.6766" style="stop-color:#005656"/>
		<stop  offset="0.9245" style="stop-color:#001515"/>
		<stop  offset="1" style="stop-color:#000000"/>
	</linearGradient>
	<path fill="url(#SVGID_5_)" d="M439.1,639.1h-49.8h-0.1H389c0,0,0,0,0,0c-2,0.1-3.5,1.8-3.5,3.8v167.9c0,2.1,1.7,3.8,3.8,3.8h0.1
		c0.4,0,0.7-0.1,1-0.2c0,0,0,0,0,0c27.6-2,49.6-31.3,49.6-67.3c0-34.8-20.5-63.4-46.8-67v-33.4h46.1c2.1,0,3.8-1.7,3.8-3.8v-0.1
		C442.9,640.8,441.2,639.1,439.1,639.1z M432.1,747.2c0,29.3-17,53.4-39.1,57V690.2C415.1,693.8,432.1,717.9,432.1,747.2z"/>
	<linearGradient id="SVGID_6_" gradientUnits="userSpaceOnUse" x1="497.5241" y1="814.5931" x2="497.5241" y2="639.1218">
		<stop  offset="0" style="stop-color:#00CCCE"/>
		<stop  offset="9.939723e-02" style="stop-color:#00C4C6"/>
		<stop  offset="0.2564" style="stop-color:#00ADAF"/>
		<stop  offset="0.4513" style="stop-color:#00898A"/>
		<stop  offset="0.6766" style="stop-color:#005656"/>
		<stop  offset="0.9245" style="stop-color:#001515"/>
		<stop  offset="1" style="stop-color:#000000"/>
	</linearGradient>
	<path fill="url(#SVGID_6_)" d="M478,680.2v-37.3c0-2.1-1.7-3.8-3.8-3.8h-0.1c-2.1,0-3.8,1.7-3.8,3.8v167.9c0,2.1,1.7,3.8,3.8,3.8
		h0.1c0.4,0,0.7-0.1,1-0.2c0,0,0,0,0,0c27.6-2,49.6-31.3,49.6-67.3C524.7,712.4,504.3,683.8,478,680.2z M478,804.2V690.2
		c22,3.6,39.1,27.8,39.1,57C517,776.5,500,800.6,478,804.2z"/>
</g>
<path d="M443.3,0c-0.2,0.1-0.3,0.3-0.2,0.5c0.6,1.5,1.2,3,1.7,4.6c0.5,1.5,1,3.1,1.4,4.6c0.8,3.1,1.3,6.3,1,9.5
	c-0.1,1.6-0.5,3.1-1.2,4.4c-0.4,0.6-0.8,1.2-1.3,1.7c-0.5,0.4-1.1,0.6-1.8,0.7c-0.7,0.1-1.5,0-2.2-0.1c-0.8-0.1-1.5-0.3-2.3-0.6
	l-2.3-0.7c-0.4-0.1-0.8-0.3-1.2-0.4c-0.4-0.1-0.8-0.2-1.2-0.3l0,0c-0.2-0.1-0.5,0-0.6,0.2c-0.1,0.2,0,0.5,0.2,0.6l0.1,0
	c0.5,0.2,1.1,0.5,1.6,0.7c0.6,0.3,1.1,0.7,1.7,1c1,0.7,2,1.5,3,2.3c1,0.8,1.9,1.7,2.7,2.6c0.8,0.9,1.6,1.8,2.2,2.8
	c0.1,0.2,0.3,0.5,0.3,0.7c0.1,0.2,0.1,0.5,0.1,0.5l0,0.3c-0.2,0.1-0.7,0.2-1.2,0.1c-0.5,0-1.1-0.1-1.7-0.2c-2.4-0.5-4.8-1.3-7.2-2.2
	l0,0c0,0,0,0,0,0c-0.6-0.2-1.2,0-1.4,0.6c-0.2,0.6,0,1.2,0.6,1.5l0.1,0c1.1,0.5,2.2,0.9,3.3,1.4c0.8,0.4,1.6,0.7,2.3,1.1
	c0.5,0.2,0.9,0.5,1.3,0.8c0.4,0.3,0.8,0.6,1.3,0.9l1.2,1c0.4,0.3,0.7,0.7,0.9,1.1c0.5,0.9,0.6,1.8,0.8,2.7c0.2,0.9,0.4,1.8,0.5,2.8
	c0.1,1,0.1,1.9,0,2.9c0,0.6-0.1,1.3-0.2,1.9c-0.1-0.1-0.2-0.3-0.3-0.4c-0.4-0.4-0.7-0.8-1.1-1.2c-1.4-1.6-3-3-4.7-4.2
	c-0.8-0.6-1.7-1.2-2.6-1.7c-0.9-0.5-1.9-1-2.9-1.4l-0.3-0.1c-0.2-0.1-0.3,0-0.5,0.1c-0.1,0.2-0.1,0.4,0,0.6l0,0
	c0.1,0.4,0.3,0.9,0.4,1.3l0.1,0.7l0.1,0.7c0.1,0.4,0.1,0.9,0.1,1.3c0,0.4,0,0.9,0,1.3c0,0.4,0,0.9-0.1,1.3c0,0.4-0.1,0.9-0.1,1.3
	c-0.1,0.4-0.1,0.9-0.2,1.3c-0.1,0.4-0.2,0.9-0.3,1.3l-0.1,0.3c-0.1,0.4,0.2,0.8,0.6,0.9l0,0c2.2,1,4.5,1.8,6.6,2.8
	c1.1,0.5,2.1,1,3.1,1.6c0.5,0.3,1,0.6,1.4,1c0.2,0.2,0.4,0.4,0.6,0.6c0.2,0.2,0.4,0.5,0.5,0.7c0.3,0.5,0.5,1,0.4,1.4
	c0,0.2-0.1,0.2-0.2,0.3c-0.1,0.1-0.4,0.1-0.6,0.1c-0.5,0-1.1,0-1.6-0.1c-0.6-0.1-1.1-0.2-1.7-0.4c-0.9-0.2-1.8-0.5-2.7-0.9
	c-1.3-0.6-2.6-1.2-4-1.6l0,0c-0.2-0.1-0.5,0-0.6,0.2c-0.1,0.2-0.1,0.5,0.2,0.6l0,0c0,0,0,0,0,0c0.2,0.1,0.4,0.3,0.6,0.4
	c-0.6,0.1-1.1,0.3-1.6,0.8c-0.5,0.5-0.7,1.2-0.7,1.7c0,0.6,0,1.1,0.1,1.6c0.2,1,0.6,1.9,1.2,2.8c0.2,0.2,0.3,0.4,0.5,0.6
	c0.1,0.2,0.3,0.3,0.5,0.5c0.3,0.3,0.7,0.6,1.1,0.9c0,1,0,2-0.1,3c0,0.1,0,0.2,0,0.3c0,0,0,0-0.1,0c-0.3-0.1-0.6-0.1-0.9-0.1
	c-0.3,0-0.8,0.1-1.2,0.5c-0.3,0.4-0.4,0.8-0.4,1.1c0,0.7,0.2,1.2,0.5,1.6c0.1,0.2,0.3,0.5,0.6,0.7c0,0,0.1,0.1,0.2,0.2
	c0.1,0,0.2,0.1,0.3,0.1c0.2,0.1,0.6,0,0.7-0.1c0.4-0.3,0.5-0.5,0.6-0.8c0.1-0.2,0.2-0.4,0.2-0.7c0.1,0.1,0.2,0.1,0.3,0.2
	c1.3,1,2.4,2.3,3.6,3.5c1.1,1.3,2.2,2.6,3.2,3.8c0.3,0.3,0.5,0.6,0.7,0.9c0.2,0.2,0.3,0.4,0.4,0.6c-0.2,0.1-0.5,0.3-0.9,0.4
	c-0.8,0.2-1.6,0.4-2.5,0.5c-0.9,0.1-1.7,0.1-2.6,0.1c-1.1,0-2.1-0.1-3.2-0.3c-0.6-0.3-1.2-0.5-1.9-0.6l-0.1,0
	c-0.2,0-0.5,0.1-0.5,0.3c-0.1,0.2,0.1,0.5,0.3,0.6l0,0c0,0,0.1,0,0.1,0c1.5,0.8,2.9,1.9,4.3,3.1c1.4,1.2,2.6,2.4,3.8,3.7l0.8,1
	l0.8,1l0.7,1.1c0.2,0.4,0.4,0.7,0.6,1.1c0.9,1.5,1.6,3.1,1.9,4.7c0.2,0.8,0.2,1.6,0,2.3c-0.2,0.7-0.6,1.4-1.3,1.8
	c-0.3,0.2-0.7,0.4-1,0.5c0,0-0.1,0-0.1,0c-0.2-1.3-0.5-2.5-0.9-3.8c-0.3-0.9-0.6-1.8-0.9-2.7l-0.5-1.3c-0.2-0.4-0.4-0.9-0.7-1.3
	c-0.5-0.9-1-1.7-1.7-2.4c-0.7-0.7-1.4-1.5-2.7-2c-0.3-0.1-0.7-0.2-1.2-0.1c-0.4,0-0.9,0.3-1.2,0.5c-0.5,0.3-1,0.9-1.2,1.4
	c-0.6,1.2-0.6,2.4-0.4,3.4c0.4,2.1,1.6,3.8,2.8,5.3c1.3,1.5,2.8,2.7,4.6,3.6c0.8,0.4,1.7,0.7,2.6,0.9c0,0.2,0.1,0.3,0.1,0.5
	c0.3,1.8,0.4,3.6,0.5,5.4c0,1.8,0,3.6-0.2,5.4c-0.2,1.8-0.4,3.6-0.7,5.4c-0.2,0.9-0.3,1.8-0.5,2.7l-0.6,2.7
	c-0.1,0.2,0.1,0.5,0.3,0.6c0.3,0.1,0.5-0.1,0.6-0.3l0.7-2.7c0.2-0.9,0.4-1.8,0.6-2.7c0.4-1.8,0.7-3.6,0.9-5.5
	c0.2-1.8,0.4-3.7,0.4-5.6c0-1.9-0.1-3.7-0.3-5.6c0-0.1,0-0.2,0-0.3c0.1,0,0.2,0,0.3-0.1c0.5-0.2,1-0.4,1.5-0.7
	c0.9-0.6,1.6-1.5,2.1-2.5c0.4-1,0.6-2.1,0.5-3.1c-0.1-2.1-0.7-4-1.5-5.7c-0.2-0.4-0.5-0.9-0.8-1.3c-0.3-0.4-0.6-0.8-0.9-1.2
	l-0.9-1.1c-0.3-0.4-0.7-0.7-1-1.1c-1.4-1.4-2.9-2.6-4.5-3.6c-0.2-0.1-0.4-0.2-0.5-0.3c0.1,0,0.2,0,0.3,0c1.8,0.2,3.6,0.2,5.5,0
	c0.5,0,1-0.1,1.5-0.3c0.3-0.1,0.6-0.2,0.9-0.5c0.2-0.2,0.4-0.4,0.5-0.8c0,0,0.1-0.2,0.1-0.3c0-0.1,0-0.2,0-0.3c0-0.1,0-0.3,0-0.4
	c-0.1-0.8-0.3-1.2-0.5-1.7c-0.2-0.5-0.4-0.9-0.7-1.3c-0.9-1.7-2.2-3.1-3.5-4.3c-1.4-1.2-2.9-2.4-4.6-3.2c-0.4-0.2-0.8-0.3-1.1-0.5
	c0-0.2,0-0.4,0-0.6c0.1-0.8,0.1-1.6,0.1-2.4c1.3,0.9,2.6,1.6,4.2,2.1c1,0.3,2,0.5,3.3,0.3c0.6-0.1,1.3-0.4,1.8-0.9
	c0.3-0.2,0.5-0.5,0.7-0.8c0.1-0.1,0.2-0.3,0.2-0.4l0.1-0.2l0-0.1l0-0.1l0-0.1l0-0.2c0-0.1,0.1-0.2,0.1-0.3c0-0.2,0-0.4,0-0.6
	c0-0.4-0.1-0.7-0.2-1c-0.2-0.6-0.5-1.1-0.8-1.5c-0.6-0.8-1.4-1.5-2.1-2.1c-0.4-0.3-0.7-0.5-1.1-0.8c0.5,0.1,1,0.1,1.5,0
	c0.3,0,0.7-0.1,1.1-0.4c0.4-0.2,0.7-0.8,0.7-1.2c0-0.4-0.1-0.8-0.2-1.1c-0.1-0.3-0.3-0.6-0.4-0.9c-0.2-0.3-0.3-0.5-0.5-0.8
	c-0.2-0.3-0.4-0.5-0.7-0.8c-0.4-0.5-0.9-0.9-1.4-1.3c-1-0.8-2.1-1.4-3.2-1.9c-1.9-1-3.8-1.8-5.7-2.7c0.1-0.2,0.2-0.4,0.2-0.6
	c0.1-0.5,0.3-1,0.3-1.5c0.1-0.5,0.1-1,0.1-1.5c0-0.5,0-1,0-1.5c-0.1-0.6-0.2-1.2-0.3-1.8c0.5,0.6,1.1,1.1,1.6,1.7
	c1.5,1.4,3.2,2.7,5,3.8c0.8,0.6,1.8,1.1,2.3,1.7c0.2,0.2,0.4,0.4,0.6,0.7c0,0.5-0.1,1.1-0.1,1.6c0,0.3,0,0.6,0.1,0.9
	c0.1,0.2,0.1,0.4,0.4,0.6c0.1,0.1,0.2,0.2,0.4,0.2c0.1,0,0.2,0,0.2,0l0,0l0,0l0.1,0c0.3-0.1,0.8-0.3,1-0.7c0.2-0.4,0.1-0.8,0.1-1.1
	c-0.2-0.9-0.6-1.7-0.9-2.5c0-0.1,0.1-0.2,0.1-0.3c0.3-1,0.7-2,0.9-3c0.3-1.1,0.5-2.2,0.5-3.3c0-1.1-0.1-2.3-0.5-3.4
	c-0.4-1.1-1.2-2.1-2-2.9c-0.4-0.4-0.8-0.8-1.2-1.2l-1.2-1l-0.3-0.2c0.3,0,0.6,0.1,0.9,0.1c0.7,0,1.5,0.1,2.6-0.3
	c0.5-0.2,1.1-0.7,1.4-1.3c0.1-0.3,0.2-0.6,0.2-0.9l0-0.2l0-0.1l0-0.1l0-0.1l0-0.2c-0.1-0.6-0.2-1-0.4-1.4c-0.2-0.4-0.4-0.7-0.6-1
	c-0.8-1.2-1.8-2.2-2.8-3.1c-0.9-0.8-1.8-1.4-2.7-2.1c0.5,0,1.1,0.1,1.6,0c0.9-0.1,1.9-0.4,2.7-1.1c0.7-0.6,1.3-1.4,1.7-2.1
	c0.8-1.6,1.2-3.3,1.3-5c0.2-3.4-0.4-6.7-1.4-9.9c-0.5-1.6-1-3.1-1.6-4.7c-0.6-1.5-1.3-3-2-4.5C443.6,0,443.4,0,443.3,0z
	 M441.5,106.2c-1.5-0.8-2.8-2-3.8-3.4c-1-1.4-1.8-3-2.1-4.5c-0.1-0.8,0-1.5,0.2-1.9c0.1-0.3,0.3-0.4,0.6-0.6c0.1,0,0,0,0.1,0
	c0,0,0.1,0,0.2,0c0.4,0.1,1.1,0.7,1.7,1.2c0.6,0.6,1.1,1.3,1.6,2c0.2,0.4,0.4,0.7,0.7,1.1l0.6,1.2c0.4,0.8,0.7,1.6,1,2.5
	c0.4,1,0.7,2,0.9,3.1C442.5,106.7,442,106.5,441.5,106.2z M445.8,85.7c0.1-0.1,0.1-0.2,0.2-0.2C446,85.5,445.9,85.6,445.8,85.7z
	 M436,77.1C436,77.1,436,77.1,436,77.1C436,77.1,436,77.1,436,77.1z M436.4,76.3c-0.1,0.2-0.1,0.4-0.2,0.5c0,0.1-0.1,0.1-0.1,0.2
	c0,0,0,0,0,0c-0.1-0.1-0.1-0.2-0.2-0.4c-0.1-0.3-0.2-0.7-0.1-0.9c0-0.1,0.1-0.1,0.1-0.1c0,0.1-0.1,0.1,0,0.1c0.2,0,0.4,0.1,0.7,0.3
	C436.4,76.2,436.4,76.3,436.4,76.3z M436.6,67.4c-0.5-0.5-0.9-1.2-1.1-1.9c-0.3-0.7-0.3-1.4-0.1-1.7c0.1-0.2,0.4-0.3,0.7-0.4l0,0
	c0,0,0,0.1,0,0.1c0.4,1.3,0.5,2.7,0.6,4.1C436.7,67.5,436.7,67.4,436.6,67.4z M436,63.1C436,63,436,63.1,436,63.1
	C436,63.1,436,63.1,436,63.1z M443.7,67.4c0.6,0.6,1.2,1.2,1.6,1.7c0.2,0.3,0.3,0.6,0.4,0.8c0,0.1,0,0.2,0,0.3c0,0,0,0.1,0,0.1
	l0,0.1c0,0,0-0.1,0,0l0,0l0,0l0,0l0,0.1c0,0.1-0.1,0.1-0.1,0.1c-0.1,0.1-0.1,0.1-0.2,0.2c-0.1,0.1-0.3,0.2-0.5,0.2
	c-0.5,0.1-1.2,0-2-0.3c-1.5-0.5-3-1.2-4.4-2.1c-0.2-0.1-0.4-0.3-0.6-0.4c0-0.8,0-1.7-0.1-2.5c-0.1-0.9-0.1-1.8-0.3-2.7
	c0-0.1,0-0.2-0.1-0.2c0.7,0.5,1.5,0.9,2.2,1.4C441,65.3,442.4,66.3,443.7,67.4z M446.3,56.4c0.1,0.2,0.1,0.4,0.1,0.4
	c0,0,0,0.1-0.2,0.2c0,0,0,0,0-0.1c-0.1-0.2-0.1-0.4-0.1-0.6c0-0.1,0-0.2,0-0.3C446.2,56.1,446.3,56.3,446.3,56.4z M445.1,35.5
	C445.2,35.5,445.2,35.5,445.1,35.5L445.1,35.5z"/>
<g>
</g>
<g>
</g>
<g>
</g>
<g>
</g>
<g>
</g>
<g>
</g>
</svg>
