<?xml version="1.0" encoding="utf-8"?>
<!-- Generator: Adobe Illustrator 19.0.0, SVG Export Plug-In . SVG Version: 6.00 Build 0)  -->
<svg version="1.1" id="Layer_1" xmlns="http://www.w3.org/2000/svg" xmlns:xlink="http://www.w3.org/1999/xlink" x="0px" y="0px"
	 viewBox="0 0 81.9 82.1" enable-background="new 0 0 81.9 82.1" xml:space="preserve">
<g>
	<path d="M79,8.1c-2.1-3.4-5.3-6.1-9.1-7.3C67.4,0.1,64.7,0,62.1,0c-2.8,0-5.6,0.1-8.4,0.1c-6.3,0-12.6,0.1-18.8,0.2
		C29,0.4,23.2,0.2,17.4,0.4C12.6,0.7,8.1,2,4.9,5.7c-2.8,3.1-4,7.2-4.5,11.3c-0.6,4.5-0.3,9-0.1,13.4c0.3,5.1,0.3,10.2,0.4,15.3
		c0,3.1,0.1,6.2,0,9.2c-0.1,3-0.3,6-0.1,8.9C0.7,66.4,1,69,2.1,71.2c0.9,2,2.3,3.9,3.9,5.4c8.6,7.9,38.5,5.4,38.6,4
		c0.3-5.3,0.8-25.4,1-30c0-0.5-0.4-1-1-1c-2.7,0-10,0.1-10.1-0.6c-0.2-1.8-0.1-9.4-0.2-11.3c1.8-0.1,10.7-0.5,10.7-0.5
		c0-1.7-0.2-10.3,1.1-15.2c0.7-2.5,1.7-4.9,3.6-6.7c2-1.9,5.8-3.6,18.6-2.5c2.4,0.2,1.2,9.4,0.5,9.5c-1.1,0.1-2.1-0.3-3.2-0.3
		c-1.3,0-2.6,0.4-3.8,0.8c-2.1,0.7-3.7,2-4.5,4.1c-0.6,1.6-0.5,3.4-0.7,5c-0.1,0.7-0.1,1.4-0.1,2c0,0.9-0.2,1.9-0.1,2.8
		c0.1,0.7,0.6,1.1,1.3,1.2c1.5,0.1,3,0.1,4.5,0c1.5-0.1,7-0.3,7.2-0.3c0,1.7-0.4,3.2-0.8,4.9c-0.4,2.1-0.7,4.3-1,6.4
		c-0.1,0.6-7.2,0.3-8.3,0.3c-0.6,0-2.1-0.2-2.4,0.5c-0.1,0.2,0.1,11.8,0,14.4c-0.1,5.3,0,10.6,0.3,15.9c0,0.8,12.5,2.1,18.9-1.6
		c5.5-3.2,5.3-11.3,5.3-12.6C81.4,63.1,83.4,15.1,79,8.1z M80.2,68.7c-0.4,2.3-0.1,12-21.9,11c-0.1-5-0.3-29-0.2-29.1
		c2.3-0.1,4.5-0.2,6.8-0.2c0.9,0,3,0.2,3.5-0.9c0.3-0.8,0.3-1.9,0.4-2.8c0.2-1.2,0.4-2.4,0.6-3.6c0.4-2,0.9-4.1,1.1-6.1
		c0.1-1-9.5,0-10.9,0c-0.5,0-1.1,0-1.6,0c-0.6,0-0.9-0.2-0.9-0.8c-0.1-1.4,0.1-2.9,0.2-4.3c0.1-1.5,0.2-3.1,0.5-4.5
		c0.6-2.2,2.3-3.4,4.4-4.1c1.3-0.4,2.6-0.5,4-0.5c1,0,2,0.4,3,0.2c1.7-0.3,1.3-3.2,1.2-4.4c0-1.3,0.2-2.6,0.2-3.9
		c0-0.7,0.2-1.8-0.2-2.4c-0.3-0.6-0.9-0.8-1.5-0.9c-1.5-0.2-12-1.1-15.5,0.1c-3.2,1-11.5,2.4-9.6,24.2c-0.7,0-8.3,0.6-10.2,0.6
		c-0.4,0-0.6,0.4-0.6,0.7c0.2,1.2-0.7,13.3-0.1,13.4c2,0.5,8.8,0.2,11.2,0.2c0,0,0,0,0.1,0c0.1,0.5-1.1,23.3-0.9,28.9c0,0,0,0,0,0
		c-0.6,0.5-1.7,0.4-2.4,0.4c-0.9,0-21.1,1-28.4-1.7c-3.6-1.4-8.2-5-9.7-9.6c-0.9-2.8-1-14.3-1-17.3c0-5.7,0-11.5-0.2-17.2
		C1.4,30.1,1,25.7,1.1,21.2c0.1-4.4,0.8-8.8,3-12.7c1.2-2,2.8-3.8,4.8-5c2.2-1.3,4.8-1.8,7.3-2c2.5-0.2,5.1-0.2,7.6-0.2
		c3.2,0,6.3,0,9.5-0.1c6.3-0.1,12.6-0.2,18.9-0.2c2.9,0,5.7,0,8.6-0.1c2.8-0.1,5.6,0,8.3,0.7c4.2,1,7.4,3.9,9.4,7.7
		C82.3,16.9,80.7,65.9,80.2,68.7z"/>
</g>
<g>
</g>
<g>
</g>
<g>
</g>
<g>
</g>
<g>
</g>
<g>
</g>
</svg>
