<?xml version="1.0" encoding="utf-8"?>
<!-- Generator: Adobe Illustrator 19.0.0, SVG Export Plug-In . SVG Version: 6.00 Build 0)  -->
<svg version="1.1" id="Layer_1" xmlns="http://www.w3.org/2000/svg" xmlns:xlink="http://www.w3.org/1999/xlink" x="0px" y="0px"
	 viewBox="0 0 83.2 82.7" enable-background="new 0 0 83.2 82.7" xml:space="preserve">
<g>
	<path d="M81.7,16.6C81.2,11.3,79.2,6,74.3,3.3c-2.9-1.6-6.1-2.1-9.3-2.4c-3.9-0.3-7.8-0.5-11.7-0.6C49.2,0.1,45.1,0.1,41,0.1
		c-4.1,0-25.7-0.9-32,2.2c-6,2.9-8.5,9-8.8,15.4C-0.1,26.4,0.2,35.2,0.1,44c0,4.4-0.1,8.9,0,13.3c0.1,2.2,0,4.4,0.3,6.6
		c0.1,1,0,2.1,0.2,3.1c0.1,1,0.2,2,0.4,3c0.4,1.7,1.2,3.2,2.2,4.6c1.7,2.6,4.2,4.8,7,6.1c2.8,1.2,6.1,1.4,9.1,1.5
		c3.6,0.1,7.2,0.3,10.9,0.3c8,0.2,16.1,0.2,24.1-0.1c7-0.2,13.3-1.3,20-4.2C87.7,72.5,82.1,20,81.7,16.6z M79.4,69.5
		c-2.3,6.4-8.4,10.3-14.9,11.2c-3.7,0.5-7.5,0.4-11.2,0.6c-4,0.2-8,0.2-12,0.2c-7.6,0-28.2,1.2-34.6-4.5C-1.2,70.1,1.3,35.3,1,21.4
		C0.9,17.9,1.6,14.3,2.8,11C4,7.8,6.4,5.3,9.4,3.6c6.3-3.4,41.3-2.2,45.4-2.1c3.8,0.1,7.6,0.1,11.4,0.5c3.5,0.3,7.4,1.1,9.9,3.6
		C84.6,13.8,80.7,65.8,79.4,69.5z"/>
	<path d="M71.2,31.1c1.1-17.8-11.4-20.5-23.9-20.8c-8.5-0.2-17.9,0.1-19.4,0.1c-2.8,0.1-5.6,0.8-8.1,2.1c-2.6,1.4-4.5,3.5-6.1,6
		c-1.9,2.9-2.6,6-3,9.4c-0.4,3.8-1.4,36.7,6.7,40.6c4.6,2.2,14.7,2.5,18,2.6c3.9,0.1,7.8,0.3,11.6,0.3c20.2,0,19.9-4.6,22-9.6
		c2-4.8,2.1-10.4,2.1-15.2C71.2,41.5,70.9,36.3,71.2,31.1z M70.5,42.1c-0.1,5.4,0.3,10.8-0.9,16.1c-0.6,2.6-1.6,5.4-3.4,7.2
		c-6.1,6.1-44.5,6.1-50-0.3c-4.1-4.8-4.9-24.1-4.8-28c0.2-4,0.4-8.2,1.2-12.2c0.7-3.3,2.6-6.7,5.1-9c5.3-5,13.1-3.9,19.7-3.7
		c3.9,0.2,7.8,0.2,11.8,0.1c3.7,0,7.3,0.1,10.8,1.4C71.7,17.9,70.6,31.9,70.5,42.1z"/>
	<path d="M65.9,37.3c-0.1-3.2,0.1-6.4-0.4-9.6c-0.5-2.9-1.7-5.9-3.9-7.9c-2-1.8-4.7-2.7-7.4-3.2c-3.1-0.6-6.3-0.5-9.4-0.6
		c-3.9-0.1-7.8-0.1-11.7,0c-5.3,0.1-11.5,0.2-15.1,4.8c-1.7,2.1-2.2,5.1-2.4,7.7c-0.3,3-0.2,6.1-0.1,9.1c0.1,2.9,0.2,5.7,0.3,8.6
		c0.1,2.8,0.1,5.5,0.4,8.3c0.3,2.9,1.6,10.8,11.9,11.3c3.8,0.2,7.5,0.3,11.2,0.2c3.9-0.1,7.8,0,11.7-0.2c3-0.2,6.1-0.4,8.9-1.9
		c2.1-1.2,3.7-3.1,4.6-5.3c1.3-3,1.1-6.5,1.2-9.7C66,45.1,65.9,41.2,65.9,37.3z M64.2,53.2c-0.2,3-0.8,5.7-2.9,8
		c-2.1,2.2-5.2,2.8-8.3,3.1c-3.9,0.4-7.8,0-11.7,0.4c-19,2.1-23.7-6-24.2-8.2c-0.9-3.8-0.7-7.8-0.8-11.7c-0.1-3.6-0.2-7.3-0.3-10.9
		c0-3.1,0.1-6.1,1-9.1c1-3.1,3.1-5.3,6.1-6.5c2.8-1.1,5.9-1.1,8.8-1.2c3.8-0.1,7.5,0,11.3,0.1c3.3,0.1,6.7,0,10,0.5
		c2.9,0.4,5.9,1.4,8,3.6c2.4,2.5,3,6.2,3.1,9.5c0.2,3.4,0.1,6.9,0.1,10.4C64.6,45.3,64.4,49.3,64.2,53.2z"/>
	<path d="M59.2,22c-1.9-1.3-4.3-0.8-5.6,1.2c-2.6,4.3,3.6,8.5,6.4,4C61.2,25.5,60.9,23.1,59.2,22z M59.2,26.4c-1.6,3.6-6,0-4.7-2.5
		c0.8-1.5,2.5-1.8,3.9-1C59.6,23.6,59.8,25.3,59.2,26.4z"/>
	<path d="M55.9,39.7C55,27.3,43,22.9,35.6,25.7C18.4,32,24,49.1,31.1,53.8c5.1,3.5,11.1,4.6,16.7,1.9c2.7-1.3,5-3.4,6.4-6.1
		C55.9,46.6,56.1,43,55.9,39.7z M53.9,47.6c-1.2,3.3-3.9,5.7-7,7.2c-6.2,3-13.4,0.7-17.6-4.5c-7.5-9.4-1.9-19.3,6-22.6
		c6.7-2.8,15-0.6,19,8.9C55.6,40,55,44.2,53.9,47.6z"/>
	<path d="M49.3,35.4c-3.1-4.8-9.3-5.5-14-3.1c-9.7,4.9-4.8,22.7,9.7,18C50.6,48.4,52.5,40.4,49.3,35.4z M44.5,49.4
		C32,53,27.3,38.4,35.3,33.6c4.1-2.5,9.7-1.8,12.7,2.2C51.4,40.2,49.6,48,44.5,49.4z"/>
</g>
<g>
</g>
<g>
</g>
<g>
</g>
<g>
</g>
<g>
</g>
<g>
</g>
</svg>
