<?xml version="1.0" encoding="utf-8"?>
<!-- Generator: Adobe Illustrator 19.0.0, SVG Export Plug-In . SVG Version: 6.00 Build 0)  -->
<svg version="1.1" id="Layer_1" xmlns="http://www.w3.org/2000/svg" xmlns:xlink="http://www.w3.org/1999/xlink" x="0px" y="0px"
	 viewBox="0 0 82.5 81.6" enable-background="new 0 0 82.5 81.6" xml:space="preserve">
<g>
	<path d="M60.2,43.7c-1.2-1,1.1-2.8,1.7-3.4c1-1.1,2.1-2.1,3.1-3.2c1.6-1.8,3.2-3.9,4.1-6.1c0.7-1.6,0.9-4.2-1.2-4.7
		c-1.2-0.3-2.5-0.1-3.8-0.2c-1.7,0-3.3-0.1-5-0.1c-1,0-2-0.1-3,0c-0.9,0.1-1.3,0.8-1.6,1.6c-0.4,1-2.7,8.4-5.7,10.9
		c-0.6,0.5-1.4,0.1-1.5-0.6c-0.2-1-0.2-2-0.3-3c-0.2-1.8-0.1-3.6-0.1-5.4c0-1.1,0.3-2.8-0.3-3.9c-0.4-0.7-8.5-0.8-11.3-0.5
		c-1.4,0.2-3.7,0.5-3.9,2.2c0,0.2,0.2,0.4,0.4,0.4c0.8,0,1.6,0.1,2.2,0.6c0.8,0.7,1.5,7.9,0.9,10.1c-0.3,1-0.8,1.6-1.9,1.1
		c-2.3-1-6.2-10.9-7-12.3c-0.9-1.6-2.7-1.6-4.3-1.6c-1.7,0-3.6,0.1-5.3,0.3c-1.1,0.1-3.5,0.3-3.5,1.6C14,48,36.2,59.3,44.7,56.5
		c2.1-0.7,2-2.7,2.2-4.6c0.1-1.1,0.1-2.7,1.5-2.1c1.3,0.5,2.4,1.6,3.4,2.5c2,1.9,3.8,4.6,6.7,5c1.2,0.2,6.1,0.1,7.3,0
		c1.4-0.1,4.1,0,4.5-1.6C71,52.8,69.8,51.5,60.2,43.7z M69.5,55.1c-0.7,1.8-9.8,2.4-12.7,0.6c-0.9-0.6-4.5-7.5-8.9-8
		c-1.1-0.1-1.7,1.9-1.8,2.9c-0.2,2,0.5,4.4-1.8,5.3c-2.1,0.8-4.8-0.1-6.9-0.8c-4.1-1.4-17.6-8.2-22.4-25.4c-0.8-3,2.6-2.7,3.4-2.7
		c1.1,0,5.5-0.4,6,0.7c1.6,4.1,6.2,14.4,10,13.2c1.7-0.6,1.8-3.3,1.8-4.7c0-1.2-0.1-2.5-0.2-3.7c-0.1-1.2-0.2-2.5-0.7-3.7
		c-0.5-1.3-1.7-1.6-3-1.7c0.6-1.1,3.2-1.2,4.1-1.2c7.8,0.2,9.3-2.1,9,6.2c-0.1,1.4-0.8,9.3,2.1,8.3c2-0.7,3.6-2.4,4.6-4.1
		c1.4-2.3,2.4-4.8,3.1-7.4c0.1-0.5,0.3-1.1,0.7-1.5c0.3-0.3,1.2-0.2,1.7-0.2c1.4,0,2.9-0.1,4.3-0.1c1.5,0,2.9,0,4.4,0
		c6.4-0.2-6.9,14-7.4,15c-0.4,0.6-0.9,1.4,0,2.4c2.3,2.7,6.9,5.2,9.3,7.5C68.7,52.4,69.9,53.9,69.5,55.1z"/>
	<path d="M82.5,15.9c0-5-0.7-10.1-4.9-13.3c-1.8-1.4-4.1-2-6.4-2.2C68.4,0,17.5-0.1,14.3,0.1c-2.5,0.2-5.1,0-7.4,1.2
		C2.7,3.4,1,8.5,0.4,12.9c-0.7,6.3-0.3,12.7-0.3,19c0,3.2-0.1,6.3-0.1,9.5c0,3.1,0.2,6.3,0.1,9.4c-0.2,3.3,0,6.6,0,9.9
		c0,3.3-0.2,6.7,0.6,9.9c0.7,2.6,2.2,5,4.1,6.9c6.5,6.4,31.5,3.4,37.1,3.4c5.4,0,10.8,0,16.2-0.1c2.7-0.1,5.3,0.2,8.1,0.1
		c7.9-0.3,10.4-1.5,11.9-2.9c1.6-1.5,2.6-3.6,3.1-5.7c0.8-2.7,0.7-5.7,0.9-8.6c0.1-3.2,0.1-6.4,0-9.5C82,41.4,82.6,28.7,82.5,15.9z
		 M81.3,24.7c-0.1,6.4-0.2,12.7-0.2,19.1c0,3.2-0.1,6.3-0.1,9.5c0,3.2,0.2,6.4,0.1,9.5c-0.1,3.9,0.3,8.2-1.8,11.6
		c-3.9,6.5-17.7,5.2-20.4,5.3C53.4,80,48,80.1,42.6,80.1c-5.4,0-10.8,0-16.3,0c-2.7,0-5.4,0-8.1,0c-2.6,0-8.4,0.2-13.1-3.3
		c-2.1-1.5-3.1-4.5-3.7-7c-0.7-3-0.4-6.3-0.4-9.4c0-3.1-0.1-6.1,0-9.2c0.1-3.1,0-6.3,0-9.4c0-3.2,0.2-6.3,0.2-9.5
		c0-6.3-0.3-12.7,0.2-19C1.9,8.3,4,2.9,9.4,1.6c4.4-1,44.5-1.3,57.4-0.8C69.4,1,72.2,1.2,74.4,2c2.6,0.9,4.6,2.9,5.7,5.4
		c1.1,2.5,1.2,5.3,1.2,8C81.4,18.4,81.3,21.6,81.3,24.7z"/>
</g>
<g>
</g>
<g>
</g>
<g>
</g>
<g>
</g>
<g>
</g>
<g>
</g>
</svg>
